<svg xmlns="http://www.w3.org/2000/svg" fill="none" viewBox="0 0 19 19">
  <path stroke="currentColor" stroke-linecap="round" stroke-linejoin="round" stroke-width="1.667" d="M6.045 6.045V3.627c0-.967 0-1.45.189-1.82.165-.325.43-.59.755-.755.369-.188.853-.188 1.82-.188h6.564c.967 0 1.45 0 1.82.188.325.165.59.43.755.755.188.37.188.853.188 1.82v6.564c0 .967 0 1.451-.188 1.82-.166.325-.43.59-.755.755-.37.188-.853.188-1.82.188h-2.418m-9.328 5.182h6.564c.967 0 1.45 0 1.82-.188.325-.166.59-.43.755-.755.188-.37.188-.853.188-1.82V8.809c0-.967 0-1.451-.188-1.82a1.727 1.727 0 0 0-.755-.755c-.37-.189-.853-.189-1.82-.189H3.627c-.967 0-1.45 0-1.82.189-.325.165-.59.43-.755.755-.188.369-.188.853-.188 1.82v6.564c0 .967 0 1.45.188 1.82.165.325.43.59.755.755.37.188.853.188 1.82.188Z"/>
</svg>
