<svg xmlns="http://www.w3.org/2000/svg" fill="none" viewBox="0 0 17 19">
  <path stroke="#475467" stroke-linecap="round" stroke-linejoin="round" stroke-width="1.667" d="M11.9 4.25v-.68c0-.952 0-1.428-.185-1.792a1.7 1.7 0 0 0-.743-.743C10.608.85 10.132.85 9.18.85H7.82c-.952 0-1.428 0-1.792.185a1.7 1.7 0 0 0-.743.743c-.185.364-.185.84-.185 1.792v.68m1.7 4.675v4.25m3.4-4.25v4.25M.85 4.25h15.3m-1.7 0v9.52c0 1.428 0 2.142-.278 2.688a2.55 2.55 0 0 1-1.114 1.114c-.546.278-1.26.278-2.688.278H6.63c-1.428 0-2.142 0-2.688-.278a2.55 2.55 0 0 1-1.114-1.114c-.278-.546-.278-1.26-.278-2.688V4.25"/>
</svg>
